<svg xmlns="http://www.w3.org/2000/svg" width="50" height="50" viewBox="0 0 50 50">
    <path d="M 13 7 C 12.448 7 12 7.448 12 8 C 12 8.552 12.448 9 13 9 L 19.5625 9 L 2.28125 26.28125 C 1.89025 26.67225 1.89025 27.32775 2.28125 27.71875 C 2.47625 27.91375 2.744 28 3 28 C 3.256 28 3.52375 27.91375 3.71875 27.71875 L 21 10.4375 L 21 17 C 21 17.552 21.448 18 22 18 C 22.552 18 23 17.552 23 17 L 23 7 L 13 7 z M 34 11 L 34 50 L 48 50 L 48 11 L 34 11 z M 18 24 L 18 50 L 32 50 L 32 24 L 18 24 z M 2 35 L 2 50 L 16 50 L 16 35 L 2 35 z" fill="#FFDA44"></path>
</svg>